# AST/ASF file generated using VICON BodyLanguage
# -----------------------------------------------
:version 1.10
:name VICON
:units
  mass 1.0
  length 0.45
  angle deg
:documentation
   .ast/.asf automatically generated from VICON data using
   VICON BodyBuilder and BodyLanguage model FoxedUp or BRILLIANT.MOD
:root
   order TX TY TZ RX RY RZ
   axis XYZ
   position 0 0 0  
   orientation 0 0 0 
:bonedata
  begin
     id 1 
     name lhipjoint
     direction 0.702568 -0.596508 0.388042 
     length 2.56661 
     axis 0 0 0  XYZ
  end
  begin
     id 2 
     name lfemur
     direction 0.34202 -0.939693 0  
     length 6.58374  
     axis 0 0 20  XYZ
    dof rx ry rz
    limits (-160.0 20.0)
           (-70.0 70.0)
           (-60.0 70.0)
  end
  begin
     id 3 
     name ltibia
     direction 0.34202 -0.939693 0   
     length 6.62538   
     axis 0 0 20   XYZ
    dof rx
    limits (-10.0 170.0)
  end
  begin
     id 4 
     name lfoot
     direction 0.10455 -0.287249 0.952133   
     length 2.26699   
     axis -90 7.62852e-016 20   XYZ
    dof rx rz
    limits (-45.0 90.0)
           (-70.0 20.0)
  end
  begin
     id 5 
     name ltoes
     direction 1.53572e-011 -4.22322e-011 1   
     length 1.12949   
     axis -90 7.62852e-016 20   XYZ
    dof rx
    limits (-90.0 20.0)
  end
  begin
     id 6 
     name rhipjoint
     direction -0.728055 -0.574632 0.373811   
     length 2.66432  
     axis 0 0 0  XYZ 
  end
  begin
     id 7 
     name rfemur
     direction -0.34202 -0.939693 0   
     length 6.66732   
     axis 0 0 -20   XYZ
    dof rx ry rz
    limits (-160.0 20.0)
           (-70.0 70.0)
           (-70.0 60.0)
  end
  begin
     id 8 
     name rtibia
     direction -0.34202 -0.939693 0   
     length 6.59288   
     axis 0 0 -20   XYZ
    dof rx
    limits (-10.0 170.0)
 end
 begin
     id 9 
     name rfoot
     direction -0.119193 -0.327479 0.93731   
     length 2.38061  
     axis -90 -7.62852e-016 -20   XYZ
    dof rx rz
    limits (-45.0 90.0)
           (-20.0 70.0)
  end
  begin
     id 10 
     name rtoes
     direction -1.53547e-011 -4.21827e-011 1   
     length 1.17899   
     axis -90 -7.62852e-016 -20   XYZ
    dof rx
    limits (-90.0 20.0)
  end
  begin
     id 11 
     name lowerback
     direction -0.000416114 0.999912 -0.0132284   
     length 2.12109   
     axis 0 0 0   XYZ
    dof rx ry rz
    limits (-20.0 45.0)
           (-30.0 30.0)
           (-30.0 30.0)
  end
  begin
     id 12 
     name upperback
     direction -0.00136371 0.99809 0.0617608   
     length 2.10067   
     axis 0 0 0   XYZ
    dof rx ry rz
    limits (-20.0 45.0)
           (-30.0 30.0)
           (-30.0 30.0)
  end
  begin
     id 13 
     name thorax
     direction -3.43026e-005 0.997776 0.0666515   
     length 2.10618   
     axis 0 0 0   XYZ
    dof rx ry rz
    limits (-20.0 45.0)
           (-30.0 30.0)
           (-30.0 30.0)
  end
  begin
     id 14 
     name lowerneck
     direction 0.0398646 0.998418 0.0396592   
     length 1.83817   
     axis 0 0 0   XYZ
    dof rx ry rz
    limits (-20.0 45.0)
           (-30.0 30.0)
           (-30.0 30.0)
  end
  begin
     id 15 
     name upperneck
     direction -0.0367268 0.961527 -0.272244   
     length 1.81975   
     axis 0 0 0   XYZ
    dof rx ry rz
    limits (-20.0 45.0)
           (-30.0 30.0)
           (-30.0 30.0)
  end
  begin
     id 16
     name head
     direction -0.0182665 0.99536 -0.0944669  
     length 1.86026  
     axis 0 0 0   XYZ
    dof rx ry rz
    limits (-20.0 45.0)
           (-30.0 30.0)
           (-30.0 30.0)
  end
  begin
     id 17 
     name lclavicle
     direction 0.924239 0.361045 0.124212  
     length 3.26878  
     axis 0 0 0   XYZ
    dof ry rz
    limits (-20.0 10.0)
           (0.0 20.0)
  end
  begin
     id 18 
     name lhumerus
     direction 1 -4.48968e-011 -2.56583e-027   
     length 4.58538   
     axis 180 -30 -90   XYZ
    dof rx ry rz
    limits (-60.0 90.0)
           (-90.0 90.0)
           (-90.0 90.0)
  end
  begin
     id 19
     name lradius
     direction 1 -4.4898e-011 -5.50375e-027   
     length 2.68935   
     axis 180 -30 -90   XYZ
    dof rx
    limits (-10.0 170.0)
  end
  begin
     id 20
     name lwrist
     direction 1 -4.48939e-011 -1.48955e-026   
     length 1.34468   
     axis 9.0955e-015 90 90   XYZ
    dof ry
    limits (-180.0 0.0)
 end
  begin
     id 21 
     name lhand
     direction 1 -4.48936e-011 -2.97907e-026   
     length 0.585058   
     axis 1.90115e-014 90 90   XYZ
    dof rx rz
    limits (-90.0 90.0)
           (-45.0 45.0)
  end
  begin
     id 22 
     name lfingers
     direction 1 -4.49082e-011 -5.96235e-026   
     length 0.471689   
     axis 3.80223e-014 90 90   XYZ
    dof rx
    limits (0.0 90.0)
  end
  begin
     id 23
     name lthumb
     direction 0.707107 -6.3489e-011 0.707107   
     length 0.677253   
     axis -90 45 -3.84942e-014   XYZ
    dof rx rz
    limits (-45.0 45.0)
           (-45.0 45.0)
  end
  begin
     id 24 
     name rclavicle
     direction -0.923098 0.371783 0.0983239   
     length 3.19656  
     axis 0 0 0   XYZ 
    dof ry rz
    limits (-10.0 20.0)
           (-20.0 0.0)
  end
  begin
     id 25 
     name rhumerus
     direction -1 -4.48976e-011 -2.5492e-027  
     length 4.4745   
     axis 180 30 90   XYZ
    dof rx ry rz
    limits (-90.0 60.0)
           (-90.0 90.0)
           (-90.0 90.0)
  end
  begin
     id 26 
     name rradius
     direction -1 -4.48941e-011 -4.36555e-027   
     length 2.93896   
     axis 180 30 90   XYZ
    dof rx
    limits (-10.0 170.0)
  end
  begin
     id 27 
     name rwrist
     direction -1 -4.49044e-011 -1.49032e-026   
     length 1.46948   
     axis 9.0955e-015 -90 -90   XYZ
    dof ry
    limits (-180.0 0.0)
  end
  begin
     id 28
     name rhand
     direction -1 -4.48826e-011 -2.97749e-026   
     length 0.405092   
     axis 1.90115e-014 -90 -90   XYZ
    dof rx rz
    limits (-90.0 90.0)
           (-45.0 45.0)
  end
  begin
     id 29
     name rfingers
     direction -1 -4.49209e-011 -5.96602e-026   
     length 0.326596   
     axis 3.80223e-014 -90 -90   XYZ
    dof rx
    limits (0.0 90.0)
  end
  begin
     id 30
     name rthumb
     direction -0.707107 -6.34776e-011 0.707107   
     length 0.468928   
     axis -90 -45 3.84942e-014   XYZ
    dof rx rz
    limits (-45.0 45.0)
           (-45.0 45.0)
  end
:hierarchy
  begin
    root lhipjoint rhipjoint lowerback
    lhipjoint lfemur
    lfemur ltibia
    ltibia lfoot
    lfoot ltoes
    rhipjoint rfemur
    rfemur rtibia
    rtibia rfoot
    rfoot rtoes
    lowerback upperback
    upperback thorax
    thorax lowerneck lclavicle rclavicle
    lowerneck upperneck
    upperneck head
    lclavicle lhumerus
    lhumerus lradius
    lradius lwrist
    lwrist lhand lthumb
    lhand lfingers
    rclavicle rhumerus
    rhumerus rradius
    rradius rwrist
    rwrist rhand rthumb
    rhand rfingers
  end

#!OML:ASF H:\Punching\Project 1\Capture day 1\Session 1\female.ASF
:FULLY-SPECIFIED
:DEGREES
952
root -0.977699 15.0869 2.13499 -1.56614 -24.7268 7.79602
lowerback 2.53928 -2.58067 3.67991
upperback -2.96418 -3.54245 -5.21708
thorax -5.08446 -2.02838 -7.30202
lowerneck -0.951159 13.3959 13.9571
upperneck 36.1519 25.085 -19.627
head 18.8865 10.5695 -7.10469
rclavicle -3.32219e-014 -2.54444e-014
rhumerus 21.0177 40.4077 -65.3328
rradius 124.107
rwrist -16.9501
rhand -27.4284 8.69643
rfingers 7.12502
rthumb -0.833806 -21.2817
lclavicle -3.32219e-014 -2.54444e-014
lhumerus -11.5588 2.28615 52.997
lradius 141.757
lwrist 4.7791
lhand -26.529 3.07829
lfingers 7.12502
lthumb 0.0348676 33.058
rfemur -24.6572 5.74003 21.7077
rtibia 49.6156
rfoot -23.7689 -16.7277
rtoes 17.5592
lfemur -57.7771 10.0898 -24.6446
ltibia 118.007
lfoot 6.56232 -1.68466
ltoes -17.4474
953
root -0.979089 15.0681 2.12475 -0.824448 -24.2697 7.53133
lowerback 2.21455 -2.5631 3.49798
upperback -3.18788 -3.52974 -5.06744
thorax -5.10935 -2.0179 -7.0465
lowerneck -1.17532 13.3041 13.901
upperneck 36.1906 24.8968 -19.48
head 18.852 10.4822 -7.05061
rclavicle 4.60187e-014 2.18663e-014
rhumerus 21.0598 40.1214 -65.0278
rradius 124.244
rwrist -17.0406
rhand -27.4288 8.67343
rfingers 7.12502
rthumb -0.834249 -21.3047
lclavicle 4.60187e-014 2.18663e-014
lhumerus -11.3739 1.80653 53.395
lradius 141.702
lwrist 4.70599
lhand -26.607 2.85672
lfingers 7.12502
lthumb -0.0405121 32.8365
rfemur -25.5679 5.55764 21.8946
rtibia 50.0568
rfoot -23.8883 -16.9477
rtoes 17.547
lfemur -55.0923 9.22759 -24.478
ltibia 116.234
lfoot 6.19052 -0.60368
ltoes -16.7485
954
root -0.979741 15.0495 2.1155 -0.0913417 -23.849 7.26098
lowerback 1.88168 -2.53571 3.34874
upperback -3.40421 -3.50206 -4.92708
thorax -5.12261 -2.00066 -6.8221
lowerneck -1.41028 13.2131 13.8502
upperneck 36.2299 24.7066 -19.3295
head 18.8215 10.3944 -6.99547
rclavicle -1.77415e-014 2.78299e-015
rhumerus 21.0922 39.8218 -64.7536
rradius 124.361
rwrist -17.0663
rhand -27.4218 8.63765
rfingers 7.12502
rthumb -0.827454 -21.3405
lclavicle -1.77415e-014 2.78299e-015
lhumerus -11.1606 1.32139 53.7956
lradius 141.655
lwrist 4.68073
lhand -26.6798 2.65464
lfingers 7.12502
lthumb -0.110855 32.6344
rfemur -26.4696 5.38132 22.0884
rtibia 50.49
rfoot -23.9961 -17.1223
rtoes 17.4952
lfemur -52.436 8.45413 -24.2861
ltibia 114.406
lfoot 5.89203 0.539047
ltoes -15.9758
955
root -0.979538 15.031 2.10695 0.636247 -23.4546 6.99181
lowerback 1.54603 -2.50135 3.22303
upperback -3.62176 -3.46414 -4.79672
thorax -5.13671 -1.97936 -6.62328
lowerneck -1.64001 13.1211 13.8099
upperneck 36.2652 24.5131 -19.1805
head 18.7896 10.3073 -6.94382
rclavicle -1.46107e-014 1.98785e-015
rhumerus 21.0983 39.5162 -64.515
rradius 124.466
rwrist -17.066
rhand -27.4201 8.59916
rfingers 7.12502
rthumb -0.825791 -21.379
lclavicle -1.46107e-014 1.98785e-015
lhumerus -10.9332 0.806382 54.1998
lradius 141.651
lwrist 4.6347
lhand -26.7247 2.70124
lfingers 7.12502
lthumb -0.154211 32.6809
rfemur -27.3704 5.21675 22.2808
rtibia 50.9175
rfoot -24.0898 -17.2669
rtoes 17.4067
lfemur -49.8234 7.75546 -24.0762
ltibia 112.524
lfoot 5.63108 1.67933
ltoes -15.1751
956
root -0.978548 15.0131 2.09897 1.35662 -23.071 6.73766
lowerback 1.20246 -2.46893 3.10329
upperback -3.83854 -3.42886 -4.67885
thorax -5.14752 -1.95971 -6.44165
lowerneck -1.86622 13.0335 13.7855
upperneck 36.2899 24.3243 -19.0385
head 18.7577 10.2245 -6.89654
rclavicle -3.58309e-014 1.59028e-015
rhumerus 21.0856 39.216 -64.312
rradius 124.562
rwrist -17.0537
rhand -27.4237 8.56959
rfingers 7.12502
rthumb -0.829344 -21.4085
lclavicle -3.58309e-014 1.59028e-015
lhumerus -10.6987 0.290895 54.598
lradius 141.68
lwrist 4.53562
lhand -26.7419 2.92073
lfingers 7.12502
lthumb -0.170804 32.9004
rfemur -28.2743 5.06078 22.4574
rtibia 51.3437
rfoot -24.1715 -17.4007
rtoes 17.2816
lfemur -47.259 7.10997 -23.8643
ltibia 110.586
lfoot 5.37213 2.7643
ltoes -14.3685
957
root -0.977097 14.9954 2.09079 2.06651 -22.6844 6.51019
lowerback 0.853858 -2.4419 2.96869
upperback -4.05288 -3.40163 -4.57607
thorax -5.1544 -1.9436 -6.26755
lowerneck -2.08731 12.9498 13.7795
upperneck 36.299 24.138 -18.903
head 18.7217 10.1456 -6.85395
rclavicle -3.2054e-014 -2.5842e-014
rhumerus 21.0473 38.9123 -64.1421
rradius 124.675
rwrist -17.0857
rhand -27.4185 8.51362
rfingers 7.12502
rthumb -0.824266 -21.4645
lclavicle -3.2054e-014 -2.5842e-014
lhumerus -10.4578 -0.21857 54.983
lradius 141.735
lwrist 4.35583
lhand -26.7373 3.30798
lfingers 7.12502
lthumb -0.166325 33.2877
rfemur -29.1869 4.92058 22.6086
rtibia 51.776
rfoot -24.2435 -17.5472
rtoes 17.1405
lfemur -44.7497 6.50988 -23.6586
ltibia 108.589
lfoot 5.09004 3.75238
ltoes -13.5792
958
root -0.97544 14.9779 2.08197 2.76101 -22.2818 6.31695
lowerback 0.500999 -2.4266 2.80708
upperback -4.25842 -3.39107 -4.4911
thorax -5.15154 -1.93459 -6.09644
lowerneck -2.30726 12.8725 13.799
upperneck 36.2843 23.9562 -18.7781
head 18.6802 10.0723 -6.81762
rclavicle 8.11041e-014 4.09496e-014
rhumerus 21.0079 38.5993 -63.9991
rradius 124.803
rwrist -17.1791
rhand -27.387 8.40672
rfingers 7.12502
rthumb -0.793887 -21.5716
lclavicle 8.11041e-014 4.09496e-014
lhumerus -10.2071 -0.709327 55.3453
lradius 141.795
lwrist 4.08638
lhand -26.737 3.77
lfingers 7.12502
lthumb -0.166085 33.7497
rfemur -30.1068 4.79295 22.7288
rtibia 52.2179
rfoot -24.3062 -17.7248
rtoes 16.9842
lfemur -42.2952 5.95345 -23.4638
ltibia 106.534
lfoot 4.76946 4.63804
ltoes -12.8082
959
root -0.973958 14.9606 2.07219 3.43421 -21.8503 6.16165
lowerback 0.156509 -2.43136 2.6036
upperback -4.45992 -3.40823 -4.41725
thorax -5.15094 -1.93769 -5.91172
lowerneck -2.51648 12.8024 13.8326
upperneck 36.2475 23.7814 -18.6614
head 18.6298 10.0044 -6.78474
rclavicle -2.86995e-014 2.62396e-014
rhumerus 20.9671 38.3003 -63.8795
rradius 124.937
rwrist -17.3315
rhand -27.3739 8.31898
rfingers 7.12502
rthumb -0.781256 -21.6593
lclavicle -2.86995e-014 2.62396e-014
lhumerus -9.96599 -1.15981 55.6846
lradius 141.827
lwrist 3.74868
lhand -26.7816 4.07771
lfingers 7.12502
lthumb -0.209191 34.0574
rfemur -31.0269 4.67366 22.8165
rtibia 52.6699
rfoot -24.3649 -17.946
rtoes 16.833
lfemur -39.889 5.44244 -23.2774
ltibia 104.422
lfoot 4.4002 5.43479
ltoes -12.0964
960
root -0.972887 14.9433 2.06082 4.08631 -21.3813 6.03635
lowerback -0.173423 -2.46209 2.35962
upperback -4.65271 -3.46025 -4.35009
thorax -5.15145 -1.95615 -5.70923
lowerneck -2.71698 12.7412 13.8811
upperneck 36.1823 23.6169 -18.5581
head 18.5695 9.9431 -6.75662
rclavicle 3.97569e-015 8.34896e-015
rhumerus 20.9418 38.0137 -63.7766
rradius 125.079
rwrist -17.5364
rhand -27.3599 8.22565
rfingers 7.12502
rthumb -0.767686 -21.7527
lclavicle 3.97569e-015 8.34896e-015
lhumerus -9.72891 -1.55929 55.9955
lradius 141.825
lwrist 3.39915
lhand -26.8608 4.2087
lfingers 7.12502
lthumb -0.285607 34.1883
rfemur -31.9411 4.56117 22.8812
rtibia 53.1278
rfoot -24.4219 -18.2169
rtoes 16.6993
lfemur -37.5324 4.98166 -23.0855
ltibia 102.261
lfoot 3.9889 6.17861
ltoes -11.4567
961
root -0.972216 14.9263 2.04781 4.72044 -20.8696 5.93105
lowerback -0.486403 -2.51658 2.09053
upperback -4.83707 -3.54347 -4.28893
thorax -5.15476 -1.98878 -5.4975
lowerneck -2.9122 12.6842 13.94
upperneck 36.0974 23.4549 -18.4619
head 18.5008 9.8845 -6.73185
rclavicle 3.77194e-014 4.41302e-014
rhumerus 20.928 37.7403 -63.6927
rradius 125.211
rwrist -17.7646
rhand -27.3664 8.15679
rfingers 7.12502
rthumb -0.774003 -21.8215
lclavicle 3.77194e-014 4.41302e-014
lhumerus -9.48854 -1.92255 56.284
lradius 141.797
lwrist 3.10921
lhand -26.9533 4.19063
lfingers 7.12502
lthumb -0.375025 34.17
rfemur -32.844 4.4518 22.9319
rtibia 53.5849
rfoot -24.4755 -18.5363
rtoes 16.5736
lfemur -35.2291 4.57591 -22.8725
ltibia 100.059
lfoot 3.53193 6.91993
ltoes -10.9026
962
root -0.971724 14.9095 2.03305 5.33791 -20.3127 5.83655
lowerback -0.777458 -2.59315 1.80935
upperback -5.01128 -3.65509 -4.23189
thorax -5.16176 -2.03463 -5.28216
lowerneck -3.10495 12.6262 14.0025
upperneck 35.9973 23.2881 -18.371
head 18.4235 9.82453 -6.71047
rclavicle -3.26752e-014 -4.92986e-014
rhumerus 20.9176 37.4735 -63.6284
rradius 125.333
rwrist -17.9664
rhand -27.3802 8.11005
rfingers 7.12502
rthumb -0.787329 -21.8682
lclavicle -3.26752e-014 -4.92986e-014
lhumerus -9.23404 -2.24794 56.5546
lradius 141.748
lwrist 2.95811
lhand -27.0385 3.99195
lfingers 7.12502
lthumb -0.457293 33.9712
rfemur -33.7311 4.33827 22.9766
rtibia 54.035
rfoot -24.5246 -18.8937
rtoes 16.4638
lfemur -32.9801 4.22755 -22.6263
ltibia 97.8245
lfoot 3.03189 7.70098
ltoes -10.4964
